<svg xmlns="http://www.w3.org/2000/svg" xmlns:xlink="http://www.w3.org/1999/xlink" width="189" zoomAndPan="magnify" viewBox="0 0 141.75 127.500001" height="170" preserveAspectRatio="xMidYMid meet" version="1.0"><defs><clipPath id="eb1a0d47f4"><path d="M 26.230469 69 L 129.039062 69 L 129.039062 125.855469 L 26.230469 125.855469 Z M 26.230469 69 " clip-rule="nonzero"/></clipPath><clipPath id="aaf359cdc3"><path d="M 92.261719 75.277344 L 126.519531 110.796875 C 128.992188 113.363281 129.695312 117.160156 128.300781 120.441406 C 126.90625 123.722656 123.6875 125.855469 120.121094 125.855469 L 35.355469 125.855469 C 31.789062 125.855469 28.570312 123.722656 27.175781 120.441406 C 25.78125 117.160156 26.484375 113.363281 28.960938 110.796875 L 63.21875 75.277344 C 67.019531 71.335938 72.261719 69.109375 77.738281 69.109375 C 83.214844 69.109375 88.457031 71.335938 92.261719 75.277344 Z M 92.261719 75.277344 " clip-rule="nonzero"/></clipPath><clipPath id="623860f1e9"><path d="M 0.230469 0.0898438 L 103.039062 0.0898438 L 103.039062 56.855469 L 0.230469 56.855469 Z M 0.230469 0.0898438 " clip-rule="nonzero"/></clipPath><clipPath id="6d3af738b1"><path d="M 66.261719 6.277344 L 100.519531 41.796875 C 102.992188 44.363281 103.695312 48.160156 102.300781 51.441406 C 100.90625 54.722656 97.6875 56.855469 94.121094 56.855469 L 9.355469 56.855469 C 5.789062 56.855469 2.570312 54.722656 1.175781 51.441406 C -0.21875 48.160156 0.484375 44.363281 2.960938 41.796875 L 37.21875 6.277344 C 41.019531 2.335938 46.261719 0.109375 51.738281 0.109375 C 57.214844 0.109375 62.457031 2.335938 66.261719 6.277344 Z M 66.261719 6.277344 " clip-rule="nonzero"/></clipPath><clipPath id="c20dc36cf2"><rect x="0" width="104" y="0" height="57"/></clipPath><clipPath id="7eed30d759"><path d="M 26.429688 0.738281 L 129 0.738281 L 129 57.65625 L 26.429688 57.65625 Z M 26.429688 0.738281 " clip-rule="nonzero"/></clipPath><clipPath id="f0beb5bac7"><path d="M 63.210938 51.316406 L 28.953125 15.796875 C 26.476562 13.230469 25.773438 9.433594 27.167969 6.152344 C 28.5625 2.871094 31.785156 0.738281 35.347656 0.738281 L 120.113281 0.738281 C 123.679688 0.738281 126.898438 2.871094 128.292969 6.152344 C 129.6875 9.433594 128.984375 13.230469 126.511719 15.796875 L 92.253906 51.316406 C 88.449219 55.257812 83.207031 57.484375 77.730469 57.484375 C 72.253906 57.484375 67.011719 55.257812 63.210938 51.316406 Z M 63.210938 51.316406 " clip-rule="nonzero"/></clipPath><clipPath id="ed4f55c9fe"><path d="M 0.429688 0.738281 L 103 0.738281 L 103 57.613281 L 0.429688 57.613281 Z M 0.429688 0.738281 " clip-rule="nonzero"/></clipPath><clipPath id="83e9aef4d4"><path d="M 37.210938 51.316406 L 2.953125 15.796875 C 0.476562 13.230469 -0.226562 9.433594 1.167969 6.152344 C 2.5625 2.871094 5.785156 0.738281 9.347656 0.738281 L 94.113281 0.738281 C 97.679688 0.738281 100.898438 2.871094 102.292969 6.152344 C 103.6875 9.433594 102.984375 13.230469 100.511719 15.796875 L 66.253906 51.316406 C 62.449219 55.257812 57.207031 57.484375 51.730469 57.484375 C 46.253906 57.484375 41.011719 55.257812 37.210938 51.316406 Z M 37.210938 51.316406 " clip-rule="nonzero"/></clipPath><clipPath id="b0c72e5efe"><rect x="0" width="103" y="0" height="58"/></clipPath><clipPath id="d9d4ecd911"><path d="M 0.152344 12 L 57 12 L 57 114.601562 L 0.152344 114.601562 Z M 0.152344 12 " clip-rule="nonzero"/></clipPath><clipPath id="8687145137"><path d="M 50.722656 77.820312 L 15.199219 112.078125 C 12.636719 114.554688 8.839844 115.257812 5.558594 113.863281 C 2.273438 112.46875 0.144531 109.25 0.144531 105.683594 L 0.144531 20.917969 C 0.144531 17.351562 2.273438 14.132812 5.558594 12.738281 C 8.839844 11.34375 12.636719 12.046875 15.199219 14.519531 L 50.722656 48.777344 C 54.664062 52.582031 56.890625 57.824219 56.890625 63.300781 C 56.890625 68.777344 54.664062 74.019531 50.722656 77.820312 Z M 50.722656 77.820312 " clip-rule="nonzero"/></clipPath><clipPath id="5790f4208d"><path d="M 0.152344 0 L 57 0 L 57 102.601562 L 0.152344 102.601562 Z M 0.152344 0 " clip-rule="nonzero"/></clipPath><clipPath id="90dbc0b365"><path d="M 50.722656 65.820312 L 15.199219 100.078125 C 12.636719 102.554688 8.839844 103.257812 5.558594 101.863281 C 2.273438 100.46875 0.144531 97.25 0.144531 93.683594 L 0.144531 8.917969 C 0.144531 5.351562 2.273438 2.132812 5.558594 0.738281 C 8.839844 -0.65625 12.636719 0.046875 15.199219 2.519531 L 50.722656 36.777344 C 54.664062 40.582031 56.890625 45.824219 56.890625 51.300781 C 56.890625 56.777344 54.664062 62.019531 50.722656 65.820312 Z M 50.722656 65.820312 " clip-rule="nonzero"/></clipPath><clipPath id="23a9dc66a8"><rect x="0" width="57" y="0" height="103"/></clipPath></defs><g clip-path="url(#eb1a0d47f4)"><g clip-path="url(#aaf359cdc3)"><g transform="matrix(1, 0, 0, 1, 26, 69)"><g clip-path="url(#c20dc36cf2)"><g clip-path="url(#623860f1e9)"><g clip-path="url(#6d3af738b1)"><path fill="#5d1c6a" d="M -11.5625 -8.777344 L 115.089844 -8.777344 L 115.089844 56.855469 L -11.5625 56.855469 Z M -11.5625 -8.777344 " fill-opacity="1" fill-rule="nonzero"/></g></g></g></g></g></g><g clip-path="url(#7eed30d759)"><g clip-path="url(#f0beb5bac7)"><g transform="matrix(1, 0, 0, 1, 26, -0.000000000000017319)"><g clip-path="url(#b0c72e5efe)"><g clip-path="url(#ed4f55c9fe)"><g clip-path="url(#83e9aef4d4)"><path fill="#5d1c6a" d="M 115.03125 66.371094 L -11.621094 66.371094 L -11.621094 0.738281 L 115.03125 0.738281 Z M 115.03125 66.371094 " fill-opacity="1" fill-rule="nonzero"/></g></g></g></g></g></g><g clip-path="url(#d9d4ecd911)"><g clip-path="url(#8687145137)"><g transform="matrix(1, 0, 0, 1, 0, 12)"><g clip-path="url(#23a9dc66a8)"><g clip-path="url(#5790f4208d)"><g clip-path="url(#90dbc0b365)"><path fill="#5d1c6a" d="M 65.777344 -12 L 65.777344 114.652344 L 0.144531 114.652344 L 0.144531 -12 Z M 65.777344 -12 " fill-opacity="1" fill-rule="nonzero"/></g></g></g></g></g></g></svg>