<svg xmlns="http://www.w3.org/2000/svg" xmlns:xlink="http://www.w3.org/1999/xlink" width="2038" zoomAndPan="magnify" viewBox="0 0 1528.5 544.499984" height="726" preserveAspectRatio="xMidYMid meet" version="1.0"><defs><g/><clipPath id="541e1f5af1"><path d="M 30.707031 258.199219 L 169.902344 258.199219 L 169.902344 333.738281 L 30.707031 333.738281 Z M 30.707031 258.199219 " clip-rule="nonzero"/></clipPath><clipPath id="c4013d034e"><path d="M 114.835938 264.394531 L 167.148438 318.636719 C 169.628906 321.207031 170.332031 325.015625 168.933594 328.308594 C 167.535156 331.597656 164.308594 333.738281 160.730469 333.738281 L 39.8125 333.738281 C 36.234375 333.738281 33.007812 331.597656 31.609375 328.308594 C 30.210938 325.015625 30.914062 321.207031 33.394531 318.636719 L 85.707031 264.394531 C 89.519531 260.441406 94.777344 258.207031 100.273438 258.207031 C 105.765625 258.207031 111.023438 260.441406 114.835938 264.394531 Z M 114.835938 264.394531 " clip-rule="nonzero"/></clipPath><clipPath id="fa46656020"><path d="M 0.707031 0.199219 L 139.902344 0.199219 L 139.902344 75.738281 L 0.707031 75.738281 Z M 0.707031 0.199219 " clip-rule="nonzero"/></clipPath><clipPath id="bd5eaf726a"><path d="M 84.835938 6.394531 L 137.148438 60.636719 C 139.628906 63.207031 140.332031 67.015625 138.933594 70.308594 C 137.535156 73.597656 134.308594 75.738281 130.730469 75.738281 L 9.8125 75.738281 C 6.234375 75.738281 3.007812 73.597656 1.609375 70.308594 C 0.210938 67.015625 0.914062 63.207031 3.394531 60.636719 L 55.707031 6.394531 C 59.519531 2.441406 64.777344 0.207031 70.273438 0.207031 C 75.765625 0.207031 81.023438 2.441406 84.835938 6.394531 Z M 84.835938 6.394531 " clip-rule="nonzero"/></clipPath><clipPath id="6fcac9aac4"><rect x="0" width="140" y="0" height="76"/></clipPath><clipPath id="b09d1f32d7"><path d="M 30.628906 172.773438 L 169.828125 172.773438 L 169.828125 248.308594 L 30.628906 248.308594 Z M 30.628906 172.773438 " clip-rule="nonzero"/></clipPath><clipPath id="1c1ba00e52"><path d="M 85.695312 242.113281 L 33.386719 187.875 C 30.902344 185.300781 30.199219 181.492188 31.597656 178.203125 C 32.996094 174.910156 36.226562 172.773438 39.800781 172.773438 L 160.71875 172.773438 C 164.296875 172.773438 167.527344 174.910156 168.925781 178.203125 C 170.324219 181.492188 169.617188 185.300781 167.136719 187.875 L 114.824219 242.113281 C 111.011719 246.070312 105.753906 248.300781 100.261719 248.300781 C 94.765625 248.300781 89.507812 246.070312 85.695312 242.113281 Z M 85.695312 242.113281 " clip-rule="nonzero"/></clipPath><clipPath id="59046c45ef"><path d="M 0.628906 0.773438 L 139.828125 0.773438 L 139.828125 76.308594 L 0.628906 76.308594 Z M 0.628906 0.773438 " clip-rule="nonzero"/></clipPath><clipPath id="84ed9fce31"><path d="M 55.695312 70.113281 L 3.386719 15.875 C 0.902344 13.300781 0.199219 9.492188 1.597656 6.203125 C 2.996094 2.910156 6.226562 0.773438 9.800781 0.773438 L 130.71875 0.773438 C 134.296875 0.773438 137.527344 2.910156 138.925781 6.203125 C 140.324219 9.492188 139.617188 13.300781 137.136719 15.875 L 84.824219 70.113281 C 81.011719 74.070312 75.753906 76.300781 70.261719 76.300781 C 64.765625 76.300781 59.507812 74.070312 55.695312 70.113281 Z M 55.695312 70.113281 " clip-rule="nonzero"/></clipPath><clipPath id="ea6600df06"><rect x="0" width="140" y="0" height="77"/></clipPath><clipPath id="54221eb177"><path d="M 0.453125 183.695312 L 75.980469 183.695312 L 75.980469 322.890625 L 0.453125 322.890625 Z M 0.453125 183.695312 " clip-rule="nonzero"/></clipPath><clipPath id="929cfbda32"><path d="M 69.785156 267.824219 L 15.546875 320.136719 C 12.972656 322.617188 9.164062 323.324219 5.871094 321.925781 C 2.582031 320.527344 0.445312 317.296875 0.445312 313.71875 L 0.445312 192.800781 C 0.445312 189.226562 2.582031 185.996094 5.871094 184.597656 C 9.164062 183.199219 12.972656 183.902344 15.546875 186.386719 L 69.785156 238.695312 C 73.738281 242.507812 75.972656 247.765625 75.972656 253.261719 C 75.972656 258.753906 73.738281 264.011719 69.785156 267.824219 Z M 69.785156 267.824219 " clip-rule="nonzero"/></clipPath><clipPath id="a720e47bfe"><path d="M 0.453125 0.695312 L 75.980469 0.695312 L 75.980469 139.890625 L 0.453125 139.890625 Z M 0.453125 0.695312 " clip-rule="nonzero"/></clipPath><clipPath id="884dea25be"><path d="M 69.785156 84.824219 L 15.546875 137.136719 C 12.972656 139.617188 9.164062 140.324219 5.871094 138.925781 C 2.582031 137.527344 0.445312 134.296875 0.445312 130.71875 L 0.445312 9.800781 C 0.445312 6.226562 2.582031 2.996094 5.871094 1.597656 C 9.164062 0.199219 12.972656 0.902344 15.546875 3.386719 L 69.785156 55.695312 C 73.738281 59.507812 75.972656 64.765625 75.972656 70.261719 C 75.972656 75.753906 73.738281 81.011719 69.785156 84.824219 Z M 69.785156 84.824219 " clip-rule="nonzero"/></clipPath><clipPath id="72540f0f10"><rect x="0" width="76" y="0" height="140"/></clipPath><clipPath id="0c965b7c6b"><rect x="0" width="922" y="0" height="207"/></clipPath></defs><g clip-path="url(#541e1f5af1)"><g clip-path="url(#c4013d034e)"><g transform="matrix(1, 0, 0, 1, 30, 258)"><g clip-path="url(#6fcac9aac4)"><g clip-path="url(#fa46656020)"><g clip-path="url(#bd5eaf726a)"><path fill="#5d1c6a" d="M -11.167969 -8.707031 L 151.777344 -8.707031 L 151.777344 75.738281 L -11.167969 75.738281 Z M -11.167969 -8.707031 " fill-opacity="1" fill-rule="nonzero"/></g></g></g></g></g></g><g clip-path="url(#b09d1f32d7)"><g clip-path="url(#1c1ba00e52)"><g transform="matrix(1, 0, 0, 1, 30, 172)"><g clip-path="url(#ea6600df06)"><g clip-path="url(#59046c45ef)"><g clip-path="url(#84ed9fce31)"><path fill="#5d1c6a" d="M 151.699219 85.214844 L -11.246094 85.214844 L -11.246094 0.773438 L 151.699219 0.773438 Z M 151.699219 85.214844 " fill-opacity="1" fill-rule="nonzero"/></g></g></g></g></g></g><g clip-path="url(#54221eb177)"><g clip-path="url(#929cfbda32)"><g transform="matrix(1, 0, 0, 1, 0, 183)"><g clip-path="url(#72540f0f10)"><g clip-path="url(#a720e47bfe)"><g clip-path="url(#884dea25be)"><path fill="#5d1c6a" d="M 84.886719 -11.179688 L 84.886719 151.765625 L 0.445312 151.765625 L 0.445312 -11.179688 Z M 84.886719 -11.179688 " fill-opacity="1" fill-rule="nonzero"/></g></g></g></g></g></g><g transform="matrix(1, 0, 0, 1, 169, 164)"><g clip-path="url(#0c965b7c6b)"><g fill="#000000" fill-opacity="1"><g transform="translate(0.234337, 166.034937)"><g><path d="M 89.6875 3.3125 C 80.539062 3.3125 71.847656 1.957031 63.609375 -0.75 C 55.367188 -3.457031 47.835938 -7.285156 41.015625 -12.234375 C 34.191406 -17.191406 28.28125 -23.066406 23.28125 -29.859375 C 18.28125 -36.648438 14.40625 -44.125 11.65625 -52.28125 C 8.914062 -60.4375 7.546875 -69.015625 7.546875 -78.015625 C 7.546875 -87.097656 8.914062 -95.695312 11.65625 -103.8125 C 14.40625 -111.9375 18.28125 -119.375 23.28125 -126.125 C 28.28125 -132.875 34.191406 -138.726562 41.015625 -143.6875 C 47.835938 -148.644531 55.367188 -152.476562 63.609375 -155.1875 C 71.847656 -157.894531 80.539062 -159.25 89.6875 -159.25 C 97.925781 -159.25 106.085938 -158.023438 114.171875 -155.578125 C 122.253906 -153.140625 129.800781 -149.421875 136.8125 -144.421875 C 143.832031 -139.429688 149.785156 -133.125 154.671875 -125.5 C 159.554688 -117.875 162.910156 -108.875 164.734375 -98.5 L 135.6875 -98.5 C 133.625 -106.507812 130.320312 -113.066406 125.78125 -118.171875 C 121.25 -123.285156 115.816406 -127.0625 109.484375 -129.5 C 103.148438 -131.945312 96.285156 -133.171875 88.890625 -133.171875 C 81.566406 -133.171875 74.703125 -131.851562 68.296875 -129.21875 C 61.890625 -126.582031 56.265625 -122.820312 51.421875 -117.9375 C 46.578125 -113.0625 42.800781 -107.25 40.09375 -100.5 C 37.382812 -93.75 36.03125 -86.21875 36.03125 -77.90625 C 36.03125 -69.4375 37.382812 -61.828125 40.09375 -55.078125 C 42.800781 -48.328125 46.578125 -42.550781 51.421875 -37.75 C 56.265625 -32.945312 61.890625 -29.265625 68.296875 -26.703125 C 74.703125 -24.148438 81.566406 -22.875 88.890625 -22.875 C 96.285156 -22.875 103.128906 -24.09375 109.421875 -26.53125 C 115.710938 -28.976562 121.144531 -32.753906 125.71875 -37.859375 C 130.300781 -42.972656 133.582031 -49.5 135.5625 -57.4375 L 164.734375 -57.4375 C 162.910156 -47.0625 159.554688 -38.039062 154.671875 -30.375 C 149.785156 -22.707031 143.875 -16.394531 136.9375 -11.4375 C 130 -6.476562 122.46875 -2.78125 114.34375 -0.34375 C 106.21875 2.09375 98 3.3125 89.6875 3.3125 Z M 89.6875 3.3125 "/></g></g></g><g fill="#000000" fill-opacity="1"><g transform="translate(164.201113, 166.034937)"><g><path d="M 43.9375 0 L 16.25 0 L 16.25 -161.078125 L 43.9375 -161.078125 L 43.9375 -113.140625 L 43.25 -99.984375 C 46.90625 -106.390625 52.144531 -111.519531 58.96875 -115.375 C 65.800781 -119.226562 73.71875 -121.15625 82.71875 -121.15625 C 98.5 -121.15625 110.316406 -116.140625 118.171875 -106.109375 C 126.035156 -96.078125 129.96875 -81.832031 129.96875 -63.375 L 129.96875 0 L 102.28125 0 L 102.28125 -62.8125 C 102.28125 -74.476562 99.835938 -82.863281 94.953125 -87.96875 C 90.066406 -93.082031 83.429688 -95.640625 75.046875 -95.640625 C 71.003906 -95.640625 67.113281 -94.78125 63.375 -93.0625 C 59.632812 -91.351562 56.296875 -88.929688 53.359375 -85.796875 C 50.429688 -82.671875 48.128906 -78.914062 46.453125 -74.53125 C 44.773438 -70.144531 43.9375 -65.320312 43.9375 -60.0625 Z M 43.9375 0 "/></g></g></g><g fill="#000000" fill-opacity="1"><g transform="translate(301.054788, 166.034937)"><g><path d="M 63.265625 3.546875 C 55.328125 3.546875 47.984375 1.945312 41.234375 -1.25 C 34.492188 -4.457031 28.625 -8.921875 23.625 -14.640625 C 18.625 -20.359375 14.75 -26.992188 12 -34.546875 C 9.257812 -42.097656 7.890625 -50.179688 7.890625 -58.796875 C 7.890625 -67.421875 9.28125 -75.488281 12.0625 -83 C 14.851562 -90.507812 18.742188 -97.125 23.734375 -102.84375 C 28.734375 -108.5625 34.585938 -113.039062 41.296875 -116.28125 C 48.003906 -119.53125 55.289062 -121.15625 63.15625 -121.15625 C 72.757812 -121.15625 81.296875 -119.078125 88.765625 -114.921875 C 96.242188 -110.765625 101.851562 -105.023438 105.59375 -97.703125 L 105.59375 -117.609375 L 131.90625 -117.609375 L 131.90625 0 L 105.59375 0 L 105.59375 -19.796875 C 101.78125 -12.472656 96.15625 -6.75 88.71875 -2.625 C 81.28125 1.488281 72.796875 3.546875 63.265625 3.546875 Z M 69.90625 -22.078125 C 74.707031 -22.078125 79.203125 -23.007812 83.390625 -24.875 C 87.585938 -26.75 91.269531 -29.34375 94.4375 -32.65625 C 97.601562 -35.976562 100.0625 -39.867188 101.8125 -44.328125 C 103.570312 -48.796875 104.453125 -53.617188 104.453125 -58.796875 C 104.453125 -63.910156 103.554688 -68.695312 101.765625 -73.15625 C 99.972656 -77.625 97.507812 -81.535156 94.375 -84.890625 C 91.25 -88.242188 87.585938 -90.851562 83.390625 -92.71875 C 79.203125 -94.59375 74.707031 -95.53125 69.90625 -95.53125 C 63.570312 -95.53125 57.789062 -94.003906 52.5625 -90.953125 C 47.34375 -87.898438 43.164062 -83.628906 40.03125 -78.140625 C 36.90625 -72.648438 35.34375 -66.203125 35.34375 -58.796875 C 35.34375 -51.171875 36.925781 -44.613281 40.09375 -39.125 C 43.257812 -33.632812 47.472656 -29.421875 52.734375 -26.484375 C 58.003906 -23.546875 63.726562 -22.078125 69.90625 -22.078125 Z M 69.90625 -22.078125 "/></g></g></g><g fill="#000000" fill-opacity="1"><g transform="translate(440.768496, 166.034937)"><g><path d="M 43.9375 0 L 16.25 0 L 16.25 -117.609375 L 42.78125 -117.609375 L 42.78125 -96.328125 C 45.53125 -102.804688 49.570312 -107.972656 54.90625 -111.828125 C 60.25 -115.679688 66.734375 -117.609375 74.359375 -117.609375 L 86.953125 -117.609375 L 86.953125 -93.8125 L 75.84375 -93.8125 C 69.519531 -93.8125 63.953125 -92.285156 59.140625 -89.234375 C 54.335938 -86.179688 50.601562 -81.753906 47.9375 -75.953125 C 45.269531 -70.160156 43.9375 -63.070312 43.9375 -54.6875 Z M 43.9375 0 "/></g></g></g><g fill="#000000" fill-opacity="1"><g transform="translate(518.362319, 166.034937)"><g><path d="M 68.640625 3.546875 C 59.867188 3.546875 51.785156 1.925781 44.390625 -1.3125 C 36.992188 -4.550781 30.566406 -9.03125 25.109375 -14.75 C 19.660156 -20.476562 15.425781 -27.113281 12.40625 -34.65625 C 9.394531 -42.207031 7.890625 -50.253906 7.890625 -58.796875 C 7.890625 -67.335938 9.394531 -75.363281 12.40625 -82.875 C 15.425781 -90.394531 19.660156 -97.03125 25.109375 -102.78125 C 30.566406 -108.539062 36.992188 -113.039062 44.390625 -116.28125 C 51.785156 -119.53125 59.867188 -121.15625 68.640625 -121.15625 C 78.785156 -121.15625 87.84375 -119.191406 95.8125 -115.265625 C 103.78125 -111.335938 110.453125 -105.976562 115.828125 -99.1875 C 121.203125 -92.394531 125 -84.691406 127.21875 -76.078125 L 98.953125 -76.078125 C 96.359375 -82.640625 92.351562 -87.5 86.9375 -90.65625 C 81.53125 -93.820312 75.46875 -95.40625 68.75 -95.40625 C 64.476562 -95.40625 60.359375 -94.585938 56.390625 -92.953125 C 52.429688 -91.316406 48.867188 -88.929688 45.703125 -85.796875 C 42.535156 -82.671875 40.015625 -78.835938 38.140625 -74.296875 C 36.273438 -69.765625 35.34375 -64.597656 35.34375 -58.796875 C 35.34375 -53.003906 36.273438 -47.835938 38.140625 -43.296875 C 40.015625 -38.765625 42.535156 -34.914062 45.703125 -31.75 C 48.867188 -28.582031 52.453125 -26.175781 56.453125 -24.53125 C 60.460938 -22.894531 64.5625 -22.078125 68.75 -22.078125 C 75.46875 -22.078125 81.53125 -23.734375 86.9375 -27.046875 C 92.351562 -30.367188 96.359375 -35.691406 98.953125 -43.015625 L 127.09375 -43.015625 C 125.113281 -33.941406 121.414062 -25.894531 116 -18.875 C 110.582031 -11.851562 103.851562 -6.359375 95.8125 -2.390625 C 87.769531 1.566406 78.710938 3.546875 68.640625 3.546875 Z M 68.640625 3.546875 "/></g></g></g><g fill="#000000" fill-opacity="1"><g transform="translate(643.203862, 166.034937)"><g><path d="M 43.9375 0 L 16.25 0 L 16.25 -161.078125 L 43.9375 -161.078125 L 43.9375 -113.140625 L 43.25 -99.984375 C 46.90625 -106.390625 52.144531 -111.519531 58.96875 -115.375 C 65.800781 -119.226562 73.71875 -121.15625 82.71875 -121.15625 C 98.5 -121.15625 110.316406 -116.140625 118.171875 -106.109375 C 126.035156 -96.078125 129.96875 -81.832031 129.96875 -63.375 L 129.96875 0 L 102.28125 0 L 102.28125 -62.8125 C 102.28125 -74.476562 99.835938 -82.863281 94.953125 -87.96875 C 90.066406 -93.082031 83.429688 -95.640625 75.046875 -95.640625 C 71.003906 -95.640625 67.113281 -94.78125 63.375 -93.0625 C 59.632812 -91.351562 56.296875 -88.929688 53.359375 -85.796875 C 50.429688 -82.671875 48.128906 -78.914062 46.453125 -74.53125 C 44.773438 -70.144531 43.9375 -65.320312 43.9375 -60.0625 Z M 43.9375 0 "/></g></g></g><g fill="#000000" fill-opacity="1"><g transform="translate(780.057537, 166.034937)"><g><path d="M 63.265625 3.546875 C 55.328125 3.546875 47.984375 1.945312 41.234375 -1.25 C 34.492188 -4.457031 28.625 -8.921875 23.625 -14.640625 C 18.625 -20.359375 14.75 -26.992188 12 -34.546875 C 9.257812 -42.097656 7.890625 -50.179688 7.890625 -58.796875 C 7.890625 -67.421875 9.28125 -75.488281 12.0625 -83 C 14.851562 -90.507812 18.742188 -97.125 23.734375 -102.84375 C 28.734375 -108.5625 34.585938 -113.039062 41.296875 -116.28125 C 48.003906 -119.53125 55.289062 -121.15625 63.15625 -121.15625 C 72.757812 -121.15625 81.296875 -119.078125 88.765625 -114.921875 C 96.242188 -110.765625 101.851562 -105.023438 105.59375 -97.703125 L 105.59375 -117.609375 L 131.90625 -117.609375 L 131.90625 0 L 105.59375 0 L 105.59375 -19.796875 C 101.78125 -12.472656 96.15625 -6.75 88.71875 -2.625 C 81.28125 1.488281 72.796875 3.546875 63.265625 3.546875 Z M 69.90625 -22.078125 C 74.707031 -22.078125 79.203125 -23.007812 83.390625 -24.875 C 87.585938 -26.75 91.269531 -29.34375 94.4375 -32.65625 C 97.601562 -35.976562 100.0625 -39.867188 101.8125 -44.328125 C 103.570312 -48.796875 104.453125 -53.617188 104.453125 -58.796875 C 104.453125 -63.910156 103.554688 -68.695312 101.765625 -73.15625 C 99.972656 -77.625 97.507812 -81.535156 94.375 -84.890625 C 91.25 -88.242188 87.585938 -90.851562 83.390625 -92.71875 C 79.203125 -94.59375 74.707031 -95.53125 69.90625 -95.53125 C 63.570312 -95.53125 57.789062 -94.003906 52.5625 -90.953125 C 47.34375 -87.898438 43.164062 -83.628906 40.03125 -78.140625 C 36.90625 -72.648438 35.34375 -66.203125 35.34375 -58.796875 C 35.34375 -51.171875 36.925781 -44.613281 40.09375 -39.125 C 43.257812 -33.632812 47.472656 -29.421875 52.734375 -26.484375 C 58.003906 -23.546875 63.726562 -22.078125 69.90625 -22.078125 Z M 69.90625 -22.078125 "/></g></g></g></g></g></svg>