<svg xmlns="http://www.w3.org/2000/svg" xmlns:xlink="http://www.w3.org/1999/xlink" width="1755" zoomAndPan="magnify" viewBox="0 0 1316.25 472.499986" height="630" preserveAspectRatio="xMidYMid meet" version="1.0"><defs><g/><clipPath id="c7f4a30b73"><path d="M 0.320312 161 L 65.714844 161 L 65.714844 280 L 0.320312 280 Z M 0.320312 161 " clip-rule="nonzero"/></clipPath><clipPath id="431ccc5a4e"><path d="M 59.296875 235.128906 L 15.414062 277.453125 C 12.84375 279.933594 9.035156 280.636719 5.742188 279.238281 C 2.453125 277.84375 0.316406 274.613281 0.316406 271.039062 L 0.316406 170.097656 C 0.316406 166.523438 2.453125 163.292969 5.742188 161.894531 C 9.035156 160.496094 12.84375 161.199219 15.414062 163.683594 L 59.296875 206.003906 C 63.25 209.816406 65.484375 215.074219 65.484375 220.566406 C 65.484375 226.0625 63.25 231.316406 59.296875 235.128906 Z M 59.296875 235.128906 " clip-rule="nonzero"/></clipPath><clipPath id="0fcb698a81"><path d="M 0.320312 0 L 65.53125 0 L 65.53125 119 L 0.320312 119 Z M 0.320312 0 " clip-rule="nonzero"/></clipPath><clipPath id="fa7973f00d"><path d="M 59.296875 74.128906 L 15.414062 116.453125 C 12.84375 118.933594 9.035156 119.636719 5.742188 118.238281 C 2.453125 116.84375 0.316406 113.613281 0.316406 110.039062 L 0.316406 9.097656 C 0.316406 5.523438 2.453125 2.292969 5.742188 0.894531 C 9.035156 -0.503906 12.84375 0.199219 15.414062 2.683594 L 59.296875 45.003906 C 63.25 48.816406 65.484375 54.074219 65.484375 59.566406 C 65.484375 65.0625 63.25 70.316406 59.296875 74.128906 Z M 59.296875 74.128906 " clip-rule="nonzero"/></clipPath><clipPath id="df7f1584c6"><rect x="0" width="66" y="0" height="119"/></clipPath><clipPath id="728f148e03"><path d="M 28.308594 226 L 147.53125 226 L 147.53125 291.167969 L 28.308594 291.167969 Z M 28.308594 226 " clip-rule="nonzero"/></clipPath><clipPath id="b816eb0543"><path d="M 102.457031 232.1875 L 144.777344 276.070312 C 147.257812 278.644531 147.964844 282.453125 146.566406 285.742188 C 145.167969 289.03125 141.9375 291.167969 138.363281 291.167969 L 37.421875 291.167969 C 33.847656 291.167969 30.617188 289.03125 29.21875 285.742188 C 27.824219 282.453125 28.527344 278.644531 31.007812 276.070312 L 73.332031 232.1875 C 77.144531 228.234375 82.398438 226 87.894531 226 C 93.386719 226 98.640625 228.234375 102.457031 232.1875 Z M 102.457031 232.1875 " clip-rule="nonzero"/></clipPath><clipPath id="2bca1953e4"><path d="M 0.308594 0 L 119.53125 0 L 119.53125 65.167969 L 0.308594 65.167969 Z M 0.308594 0 " clip-rule="nonzero"/></clipPath><clipPath id="f06a9c0127"><path d="M 74.457031 6.1875 L 116.777344 50.070312 C 119.257812 52.644531 119.964844 56.453125 118.566406 59.742188 C 117.167969 63.03125 113.9375 65.167969 110.363281 65.167969 L 9.421875 65.167969 C 5.847656 65.167969 2.617188 63.03125 1.21875 59.742188 C -0.175781 56.453125 0.527344 52.644531 3.007812 50.070312 L 45.332031 6.1875 C 49.144531 2.234375 54.398438 0 59.894531 0 C 65.386719 0 70.640625 2.234375 74.457031 6.1875 Z M 74.457031 6.1875 " clip-rule="nonzero"/></clipPath><clipPath id="0a27026c9c"><rect x="0" width="120" y="0" height="66"/></clipPath><clipPath id="5786b7fabd"><path d="M 28.246094 149.957031 L 147.46875 149.957031 L 147.46875 215.359375 L 28.246094 215.359375 Z M 28.246094 149.957031 " clip-rule="nonzero"/></clipPath><clipPath id="527e5bfa05"><path d="M 73.324219 208.941406 L 31 165.058594 C 28.519531 162.484375 27.816406 158.675781 29.214844 155.386719 C 30.613281 152.09375 33.839844 149.957031 37.417969 149.957031 L 138.355469 149.957031 C 141.929688 149.957031 145.160156 152.09375 146.558594 155.386719 C 147.957031 158.675781 147.253906 162.484375 144.769531 165.058594 L 102.449219 208.941406 C 98.636719 212.894531 93.378906 215.125 87.886719 215.125 C 82.394531 215.125 77.136719 212.894531 73.324219 208.941406 Z M 73.324219 208.941406 " clip-rule="nonzero"/></clipPath><clipPath id="f9c910b07a"><path d="M 0.246094 0.957031 L 119.46875 0.957031 L 119.46875 66.292969 L 0.246094 66.292969 Z M 0.246094 0.957031 " clip-rule="nonzero"/></clipPath><clipPath id="6e2661f7b7"><path d="M 45.324219 59.941406 L 3 16.058594 C 0.519531 13.484375 -0.183594 9.675781 1.214844 6.386719 C 2.613281 3.09375 5.839844 0.957031 9.417969 0.957031 L 110.355469 0.957031 C 113.929688 0.957031 117.160156 3.09375 118.558594 6.386719 C 119.957031 9.675781 119.253906 13.484375 116.769531 16.058594 L 74.449219 59.941406 C 70.636719 63.894531 65.378906 66.125 59.886719 66.125 C 54.394531 66.125 49.136719 63.894531 45.324219 59.941406 Z M 45.324219 59.941406 " clip-rule="nonzero"/></clipPath><clipPath id="4a009e40a5"><rect x="0" width="120" y="0" height="67"/></clipPath></defs><g fill="#000000" fill-opacity="1"><g transform="translate(177.227644, 288.203361)"><g><path d="M 77.625 2.875 C 69.695312 2.875 62.171875 1.703125 55.046875 -0.640625 C 47.921875 -2.984375 41.398438 -6.300781 35.484375 -10.59375 C 29.578125 -14.882812 24.460938 -19.96875 20.140625 -25.84375 C 15.816406 -31.71875 12.46875 -38.1875 10.09375 -45.25 C 7.71875 -52.3125 6.53125 -59.734375 6.53125 -67.515625 C 6.53125 -75.367188 7.71875 -82.8125 10.09375 -89.84375 C 12.46875 -96.875 15.816406 -103.3125 20.140625 -109.15625 C 24.460938 -115 29.578125 -120.0625 35.484375 -124.34375 C 41.398438 -128.632812 47.921875 -131.953125 55.046875 -134.296875 C 62.171875 -136.640625 69.695312 -137.8125 77.625 -137.8125 C 84.75 -137.8125 91.804688 -136.753906 98.796875 -134.640625 C 105.796875 -132.535156 112.332031 -129.320312 118.40625 -125 C 124.476562 -120.675781 129.625 -115.210938 133.84375 -108.609375 C 138.070312 -102.003906 140.976562 -94.21875 142.5625 -85.25 L 117.421875 -85.25 C 115.640625 -92.175781 112.785156 -97.847656 108.859375 -102.265625 C 104.929688 -106.691406 100.226562 -109.960938 94.75 -112.078125 C 89.269531 -114.191406 83.328125 -115.25 76.921875 -115.25 C 70.585938 -115.25 64.648438 -114.109375 59.109375 -111.828125 C 53.566406 -109.546875 48.695312 -106.289062 44.5 -102.0625 C 40.3125 -97.84375 37.046875 -92.8125 34.703125 -86.96875 C 32.359375 -81.132812 31.1875 -74.617188 31.1875 -67.421875 C 31.1875 -60.097656 32.359375 -53.515625 34.703125 -47.671875 C 37.046875 -41.828125 40.3125 -36.828125 44.5 -32.671875 C 48.695312 -28.515625 53.566406 -25.328125 59.109375 -23.109375 C 64.648438 -20.898438 70.585938 -19.796875 76.921875 -19.796875 C 83.328125 -19.796875 89.253906 -20.851562 94.703125 -22.96875 C 100.148438 -25.082031 104.851562 -28.347656 108.8125 -32.765625 C 112.769531 -37.191406 115.609375 -42.835938 117.328125 -49.703125 L 142.5625 -49.703125 C 140.976562 -40.722656 138.070312 -32.914062 133.84375 -26.28125 C 129.625 -19.65625 124.507812 -14.195312 118.5 -9.90625 C 112.5 -5.613281 105.984375 -2.410156 98.953125 -0.296875 C 91.921875 1.816406 84.8125 2.875 77.625 2.875 Z M 77.625 2.875 "/></g></g></g><g fill="#000000" fill-opacity="1"><g transform="translate(319.136204, 288.203361)"><g><path d="M 38.015625 0 L 14.0625 0 L 14.0625 -139.40625 L 38.015625 -139.40625 L 38.015625 -97.921875 L 37.421875 -86.53125 C 40.585938 -92.070312 45.125 -96.507812 51.03125 -99.84375 C 56.945312 -103.175781 63.796875 -104.84375 71.578125 -104.84375 C 85.242188 -104.84375 95.472656 -100.503906 102.265625 -91.828125 C 109.066406 -83.148438 112.46875 -70.820312 112.46875 -54.84375 L 112.46875 0 L 88.515625 0 L 88.515625 -54.359375 C 88.515625 -64.453125 86.398438 -71.707031 82.171875 -76.125 C 77.953125 -80.550781 72.210938 -82.765625 64.953125 -82.765625 C 61.453125 -82.765625 58.082031 -82.019531 54.84375 -80.53125 C 51.613281 -79.050781 48.726562 -76.957031 46.1875 -74.25 C 43.644531 -71.550781 41.644531 -68.300781 40.1875 -64.5 C 38.738281 -60.707031 38.015625 -56.535156 38.015625 -51.984375 Z M 38.015625 0 "/></g></g></g><g fill="#000000" fill-opacity="1"><g transform="translate(437.579363, 288.203361)"><g><path d="M 54.75 3.0625 C 47.882812 3.0625 41.53125 1.675781 35.6875 -1.09375 C 29.851562 -3.863281 24.769531 -7.722656 20.4375 -12.671875 C 16.113281 -17.617188 12.765625 -23.359375 10.390625 -29.890625 C 8.015625 -36.429688 6.828125 -43.429688 6.828125 -50.890625 C 6.828125 -58.347656 8.03125 -65.328125 10.4375 -71.828125 C 12.851562 -78.328125 16.222656 -84.050781 20.546875 -89 C 24.867188 -93.957031 29.929688 -97.835938 35.734375 -100.640625 C 41.546875 -103.441406 47.851562 -104.84375 54.65625 -104.84375 C 62.96875 -104.84375 70.359375 -103.046875 76.828125 -99.453125 C 83.296875 -95.859375 88.148438 -90.890625 91.390625 -84.546875 L 91.390625 -101.78125 L 114.15625 -101.78125 L 114.15625 0 L 91.390625 0 L 91.390625 -17.125 C 88.085938 -10.789062 83.21875 -5.84375 76.78125 -2.28125 C 70.34375 1.28125 63 3.0625 54.75 3.0625 Z M 60.5 -19.109375 C 64.65625 -19.109375 68.546875 -19.914062 72.171875 -21.53125 C 75.804688 -23.144531 78.992188 -25.390625 81.734375 -28.265625 C 84.472656 -31.140625 86.597656 -34.503906 88.109375 -38.359375 C 89.628906 -42.222656 90.390625 -46.398438 90.390625 -50.890625 C 90.390625 -55.304688 89.613281 -59.445312 88.0625 -63.3125 C 86.507812 -67.175781 84.378906 -70.554688 81.671875 -73.453125 C 78.972656 -76.359375 75.804688 -78.617188 72.171875 -80.234375 C 68.546875 -81.859375 64.65625 -82.671875 60.5 -82.671875 C 55.019531 -82.671875 50.019531 -81.347656 45.5 -78.703125 C 40.976562 -76.066406 37.363281 -72.375 34.65625 -67.625 C 31.945312 -62.875 30.59375 -57.296875 30.59375 -50.890625 C 30.59375 -44.285156 31.960938 -38.609375 34.703125 -33.859375 C 37.441406 -29.109375 41.085938 -25.460938 45.640625 -22.921875 C 50.191406 -20.378906 55.144531 -19.109375 60.5 -19.109375 Z M 60.5 -19.109375 "/></g></g></g><g fill="#000000" fill-opacity="1"><g transform="translate(558.497755, 288.203361)"><g><path d="M 38.015625 0 L 14.0625 0 L 14.0625 -101.78125 L 37.03125 -101.78125 L 37.03125 -83.359375 C 39.40625 -88.972656 42.898438 -93.445312 47.515625 -96.78125 C 52.140625 -100.113281 57.753906 -101.78125 64.359375 -101.78125 L 75.25 -101.78125 L 75.25 -81.1875 L 65.640625 -81.1875 C 60.160156 -81.1875 55.34375 -79.863281 51.1875 -77.21875 C 47.03125 -74.582031 43.796875 -70.753906 41.484375 -65.734375 C 39.171875 -60.722656 38.015625 -54.585938 38.015625 -47.328125 Z M 38.015625 0 "/></g></g></g><g fill="#000000" fill-opacity="1"><g transform="translate(625.653629, 288.203361)"><g><path d="M 59.40625 3.0625 C 51.8125 3.0625 44.8125 1.660156 38.40625 -1.140625 C 32.007812 -3.941406 26.453125 -7.816406 21.734375 -12.765625 C 17.015625 -17.722656 13.347656 -23.46875 10.734375 -30 C 8.128906 -36.53125 6.828125 -43.492188 6.828125 -50.890625 C 6.828125 -58.285156 8.128906 -65.234375 10.734375 -71.734375 C 13.347656 -78.234375 17.015625 -83.972656 21.734375 -88.953125 C 26.453125 -93.941406 32.007812 -97.835938 38.40625 -100.640625 C 44.8125 -103.441406 51.8125 -104.84375 59.40625 -104.84375 C 68.1875 -104.84375 76.023438 -103.144531 82.921875 -99.75 C 89.816406 -96.351562 95.585938 -91.71875 100.234375 -85.84375 C 104.890625 -79.96875 108.175781 -73.300781 110.09375 -65.84375 L 85.640625 -65.84375 C 83.398438 -71.519531 79.9375 -75.726562 75.25 -78.46875 C 70.5625 -81.207031 65.3125 -82.578125 59.5 -82.578125 C 55.800781 -82.578125 52.234375 -81.863281 48.796875 -80.4375 C 45.367188 -79.019531 42.285156 -76.957031 39.546875 -74.25 C 36.804688 -71.550781 34.628906 -68.234375 33.015625 -64.296875 C 31.398438 -60.367188 30.59375 -55.898438 30.59375 -50.890625 C 30.59375 -45.867188 31.398438 -41.394531 33.015625 -37.46875 C 34.628906 -33.539062 36.804688 -30.207031 39.546875 -27.46875 C 42.285156 -24.726562 45.390625 -22.648438 48.859375 -21.234375 C 52.328125 -19.816406 55.875 -19.109375 59.5 -19.109375 C 65.3125 -19.109375 70.5625 -20.539062 75.25 -23.40625 C 79.9375 -26.28125 83.398438 -30.882812 85.640625 -37.21875 L 110 -37.21875 C 108.28125 -29.363281 105.078125 -22.398438 100.390625 -16.328125 C 95.703125 -10.265625 89.875 -5.515625 82.90625 -2.078125 C 75.945312 1.347656 68.113281 3.0625 59.40625 3.0625 Z M 59.40625 3.0625 "/></g></g></g><g fill="#000000" fill-opacity="1"><g transform="translate(733.700694, 288.203361)"><g><path d="M 38.015625 0 L 14.0625 0 L 14.0625 -139.40625 L 38.015625 -139.40625 L 38.015625 -97.921875 L 37.421875 -86.53125 C 40.585938 -92.070312 45.125 -96.507812 51.03125 -99.84375 C 56.945312 -103.175781 63.796875 -104.84375 71.578125 -104.84375 C 85.242188 -104.84375 95.472656 -100.503906 102.265625 -91.828125 C 109.066406 -83.148438 112.46875 -70.820312 112.46875 -54.84375 L 112.46875 0 L 88.515625 0 L 88.515625 -54.359375 C 88.515625 -64.453125 86.398438 -71.707031 82.171875 -76.125 C 77.953125 -80.550781 72.210938 -82.765625 64.953125 -82.765625 C 61.453125 -82.765625 58.082031 -82.019531 54.84375 -80.53125 C 51.613281 -79.050781 48.726562 -76.957031 46.1875 -74.25 C 43.644531 -71.550781 41.644531 -68.300781 40.1875 -64.5 C 38.738281 -60.707031 38.015625 -56.535156 38.015625 -51.984375 Z M 38.015625 0 "/></g></g></g><g fill="#000000" fill-opacity="1"><g transform="translate(852.14383, 288.203361)"><g><path d="M 54.75 3.0625 C 47.882812 3.0625 41.53125 1.675781 35.6875 -1.09375 C 29.851562 -3.863281 24.769531 -7.722656 20.4375 -12.671875 C 16.113281 -17.617188 12.765625 -23.359375 10.390625 -29.890625 C 8.015625 -36.429688 6.828125 -43.429688 6.828125 -50.890625 C 6.828125 -58.347656 8.03125 -65.328125 10.4375 -71.828125 C 12.851562 -78.328125 16.222656 -84.050781 20.546875 -89 C 24.867188 -93.957031 29.929688 -97.835938 35.734375 -100.640625 C 41.546875 -103.441406 47.851562 -104.84375 54.65625 -104.84375 C 62.96875 -104.84375 70.359375 -103.046875 76.828125 -99.453125 C 83.296875 -95.859375 88.148438 -90.890625 91.390625 -84.546875 L 91.390625 -101.78125 L 114.15625 -101.78125 L 114.15625 0 L 91.390625 0 L 91.390625 -17.125 C 88.085938 -10.789062 83.21875 -5.84375 76.78125 -2.28125 C 70.34375 1.28125 63 3.0625 54.75 3.0625 Z M 60.5 -19.109375 C 64.65625 -19.109375 68.546875 -19.914062 72.171875 -21.53125 C 75.804688 -23.144531 78.992188 -25.390625 81.734375 -28.265625 C 84.472656 -31.140625 86.597656 -34.503906 88.109375 -38.359375 C 89.628906 -42.222656 90.390625 -46.398438 90.390625 -50.890625 C 90.390625 -55.304688 89.613281 -59.445312 88.0625 -63.3125 C 86.507812 -67.175781 84.378906 -70.554688 81.671875 -73.453125 C 78.972656 -76.359375 75.804688 -78.617188 72.171875 -80.234375 C 68.546875 -81.859375 64.65625 -82.671875 60.5 -82.671875 C 55.019531 -82.671875 50.019531 -81.347656 45.5 -78.703125 C 40.976562 -76.066406 37.363281 -72.375 34.65625 -67.625 C 31.945312 -62.875 30.59375 -57.296875 30.59375 -50.890625 C 30.59375 -44.285156 31.960938 -38.609375 34.703125 -33.859375 C 37.441406 -29.109375 41.085938 -25.460938 45.640625 -22.921875 C 50.191406 -20.378906 55.144531 -19.109375 60.5 -19.109375 Z M 60.5 -19.109375 "/></g></g></g><g fill="#84e4a8" fill-opacity="1"><g transform="translate(973.072923, 288.203361)"><g><path d="M 26.625 2.46875 C 23.851562 2.46875 21.425781 1.875 19.34375 0.6875 C 17.269531 -0.5 15.640625 -2.097656 14.453125 -4.109375 C 13.265625 -6.117188 12.671875 -8.3125 12.671875 -10.6875 C 12.671875 -13.0625 13.25 -15.253906 14.40625 -17.265625 C 15.5625 -19.285156 17.191406 -20.890625 19.296875 -22.078125 C 21.410156 -23.265625 23.890625 -23.859375 26.734375 -23.859375 C 29.566406 -23.859375 32.019531 -23.265625 34.09375 -22.078125 C 36.175781 -20.890625 37.8125 -19.285156 39 -17.265625 C 40.195312 -15.253906 40.796875 -13.0625 40.796875 -10.6875 C 40.796875 -7.0625 39.503906 -3.960938 36.921875 -1.390625 C 34.347656 1.179688 30.914062 2.46875 26.625 2.46875 Z M 26.625 2.46875 "/></g></g></g><g fill="#000000" fill-opacity="1"><g transform="translate(1019.348174, 288.203361)"><g><path d="M 136.328125 0 L 110.296875 0 L 99.59375 -26.03125 L 37.625 -26.03125 L 26.9375 0 L 0.890625 0 L 56.921875 -134.75 L 80.296875 -134.75 Z M 67.71875 -99.703125 L 46.03125 -46.625 L 91.1875 -46.625 L 69.40625 -99.703125 L 68.8125 -102.96875 L 68.515625 -102.96875 Z M 67.71875 -99.703125 "/></g></g></g><g fill="#000000" fill-opacity="1"><g transform="translate(1149.375507, 288.203361)"><g><path d="M 40.6875 0 L 16.046875 0 L 16.046875 -134.65625 L 40.6875 -134.65625 Z M 40.6875 0 "/></g></g></g><g clip-path="url(#c7f4a30b73)"><g clip-path="url(#431ccc5a4e)"><g transform="matrix(1, 0, 0, 1, 0.000000000000000056, 161)"><g clip-path="url(#df7f1584c6)"><g clip-path="url(#0fcb698a81)"><g clip-path="url(#fa7973f00d)"><path fill="#84e4a8" d="M 74.398438 -11.878906 L 74.398438 131.070312 L 0.316406 131.070312 L 0.316406 -11.878906 Z M 74.398438 -11.878906 " fill-opacity="1" fill-rule="nonzero"/></g></g></g></g></g></g><g clip-path="url(#728f148e03)"><g clip-path="url(#b816eb0543)"><g transform="matrix(1, 0, 0, 1, 28, 226)"><g clip-path="url(#0a27026c9c)"><g clip-path="url(#2bca1953e4)"><g clip-path="url(#f06a9c0127)"><path fill="#167544" d="M -11.554688 -8.910156 L 131.398438 -8.910156 L 131.398438 65.167969 L -11.554688 65.167969 Z M -11.554688 -8.910156 " fill-opacity="1" fill-rule="nonzero"/></g></g></g></g></g></g><g clip-path="url(#5786b7fabd)"><g clip-path="url(#527e5bfa05)"><g transform="matrix(1, 0, 0, 1, 28, 149)"><g clip-path="url(#4a009e40a5)"><g clip-path="url(#f9c910b07a)"><g clip-path="url(#6e2661f7b7)"><path fill="#98fb98" d="M 131.332031 75.039062 L -11.617188 75.039062 L -11.617188 0.957031 L 131.332031 0.957031 Z M 131.332031 75.039062 " fill-opacity="1" fill-rule="nonzero"/></g></g></g></g></g></g></svg>